<?xml version="1.0" standalone="no"?>
<!DOCTYPE svg PUBLIC "-//W3C//DTD SVG 20010904//EN"
 "http://www.w3.org/TR/2001/REC-SVG-20010904/DTD/svg10.dtd">
<svg version="1.0" xmlns="http://www.w3.org/2000/svg"
 width="960.000000pt" height="400.000000pt" viewBox="0 0 960.000000 400.000000"
 preserveAspectRatio="xMidYMid meet">
<metadata>
Created by potrace 1.15, written by Peter Selinger 2001-2017
</metadata>
<g transform="translate(0.000000,400.000000) scale(0.100000,-0.100000)"
fill="#000000" stroke="none">
<path d="M920 3565 l0 -255 128 0 c144 0 188 13 235 69 80 95 74 297 -12 382
-45 45 -102 59 -246 59 l-105 0 0 -255z m278 174 c49 -30 67 -77 67 -174 0
-151 -43 -195 -192 -195 l-83 0 0 196 0 197 93 -5 c53 -3 102 -11 115 -19z"/>
<path d="M3730 3640 l0 -90 -558 0 c-545 0 -558 0 -575 20 -9 11 -27 20 -40
20 -13 0 -32 -9 -42 -20 -18 -19 -31 -20 -492 -20 -414 0 -473 -2 -473 -15 0
-13 59 -15 471 -15 l472 0 23 -26 24 -25 0 -449 0 -450 -229 -2 -230 -3 199
-353 199 -354 -19 -26 c-19 -26 -25 -54 -22 -99 2 -27 57 -83 83 -83 18 0 19
-11 19 -355 l0 -355 410 0 410 0 0 -173 c0 -168 -1 -174 -23 -195 l-23 -22
-917 0 c-808 0 -917 -2 -917 -15 0 -13 109 -15 918 -15 905 0 918 0 935 -20
10 -12 29 -20 47 -20 19 0 34 7 42 20 12 19 24 20 160 20 l148 0 0 -90 0 -91
403 3 402 3 67 32 c86 40 160 113 198 195 17 35 30 69 30 76 0 15 2 15 36 -3
60 -31 131 -8 159 52 l16 33 574 0 575 0 0 -90 0 -90 373 0 c405 0 446 4 536
57 65 38 130 109 163 178 15 33 28 66 28 74 0 9 6 11 18 6 9 -4 33 -12 52 -18
47 -13 101 11 126 59 19 34 19 34 91 34 40 0 73 -4 73 -8 0 -28 78 -30 95 -3
4 8 166 11 521 11 507 0 514 0 514 20 0 20 -7 20 -509 20 l-510 0 -25 23 c-25
23 -26 27 -28 182 l-3 159 -575 338 c-316 186 -581 342 -588 346 -8 5 204 136
580 359 l593 352 5 153 c4 112 9 159 20 176 l15 22 512 0 c449 0 513 2 513 15
0 13 -64 15 -513 15 -500 0 -513 0 -530 20 -9 11 -27 20 -40 20 -13 0 -32 -9
-42 -20 -15 -16 -31 -20 -85 -20 -66 0 -68 1 -80 30 -25 62 -117 92 -166 55
-27 -21 -29 -19 -43 27 -36 118 -147 228 -268 263 -64 18 -81 19 -480 17
l-343 -2 0 -90 0 -90 -573 0 -573 0 -17 35 c-9 18 -28 42 -42 51 -31 20 -96
20 -128 0 -23 -16 -24 -16 -36 26 -42 141 -175 253 -328 278 -32 6 -217 10
-410 10 l-353 0 0 -90z m765 39 c120 -22 218 -96 272 -207 25 -50 28 -68 28
-152 0 -83 -4 -103 -28 -155 -46 -99 -127 -169 -232 -202 -29 -9 -139 -13
-402 -13 l-363 0 0 370 0 370 333 0 c198 0 357 -4 392 -11z m-765 -349 l0
-190 -182 -2 -183 -3 -3 -1083 -2 -1082 -393 2 -392 3 -3 331 -2 332 35 21
c66 39 83 127 35 179 -11 12 -20 23 -20 26 0 3 90 161 200 351 110 190 200
348 200 350 0 3 -100 6 -222 7 l-223 3 -3 443 -2 444 22 28 23 29 558 0 557 1
0 -190z m3207 141 c128 -19 230 -92 289 -208 26 -53 29 -67 29 -158 0 -89 -3
-106 -28 -157 -56 -114 -161 -190 -290 -209 -34 -5 -207 -9 -384 -9 l-323 0 0
375 0 375 323 0 c177 0 350 -4 384 -9z m-1959 -104 c46 -42 9 -127 -56 -127
-86 0 -101 135 -17 152 27 6 45 -1 73 -25z m1212 -267 l0 -200 -310 0 -310 0
0 -172 1 -173 444 -260 c372 -217 441 -261 427 -271 -9 -6 -209 -125 -444
-264 l-428 -253 0 -174 0 -173 310 0 310 0 0 -200 0 -200 -573 0 -573 0 -17
35 c-9 18 -28 42 -42 51 -33 21 -94 22 -127 0 -25 -16 -25 -16 -37 26 -43 141
-174 253 -328 278 -32 6 -217 10 -410 10 l-353 0 0 -95 0 -95 -165 0 -165 0 0
1065 0 1065 165 0 165 0 0 -95 0 -96 403 3 402 3 67 32 c86 40 160 113 198
195 17 35 30 69 30 76 0 15 2 15 36 -3 60 -31 131 -8 159 52 l16 33 574 0 575
0 0 -200z m1247 58 c49 -45 14 -128 -54 -128 -44 0 -73 30 -73 75 0 68 77 101
127 53z m220 -94 c23 -25 23 -30 21 -167 l-3 -142 -585 -347 c-322 -191 -589
-348 -594 -348 -5 0 -207 116 -448 257 l-438 257 0 148 0 148 290 0 289 0 3
-87 3 -88 330 -3 c359 -3 459 5 540 42 95 43 186 147 216 244 14 46 16 48 43
27 49 -37 141 -7 166 55 12 29 14 30 78 30 57 0 68 -3 89 -26z m-4707 -541
c-1 -5 -83 -150 -184 -323 -182 -314 -182 -315 -218 -318 l-35 -3 -170 303
c-94 167 -176 313 -182 326 l-12 22 401 0 c220 0 400 -3 400 -7z m4145 -861
l580 -341 3 -147 c2 -140 1 -148 -19 -171 -19 -20 -32 -23 -91 -23 -62 0 -69
2 -77 22 -23 60 -98 91 -152 64 -39 -19 -49 -20 -49 -3 0 6 -13 39 -28 72 -33
69 -97 139 -164 178 -91 53 -129 57 -535 57 l-373 0 0 -85 0 -85 -290 0 -291
0 3 147 3 146 435 259 c239 142 442 257 450 255 8 -2 276 -157 595 -345z
m-4490 153 c41 -40 26 -106 -28 -124 -60 -21 -119 37 -97 95 22 57 83 72 125
29z m4425 -512 c81 -33 153 -101 192 -181 30 -61 33 -74 33 -162 0 -82 -4
-103 -27 -152 -37 -79 -98 -142 -177 -181 l-66 -32 -377 -3 -378 -3 0 371 0
371 373 -3 c358 -3 374 -4 427 -25z m-2448 -220 c81 -38 146 -102 185 -181 25
-50 28 -68 28 -152 0 -83 -4 -103 -28 -155 -36 -78 -104 -146 -181 -182 l-61
-28 -377 -3 -378 -3 0 371 0 371 373 -3 372 -3 67 -32z m2837 -58 c66 -34 50
-126 -24 -141 -89 -17 -121 117 -35 149 24 9 29 8 59 -8z m-3689 -280 l0 -195
-146 0 c-194 0 -183 -12 -184 218 l0 172 165 0 165 0 0 -195z m1256 47 c35
-45 -5 -122 -64 -122 -86 0 -101 134 -17 152 26 6 65 -9 81 -30z"/>
<path d="M9218 3377 c-61 -17 -92 -39 -127 -88 -77 -105 -64 -269 28 -360 67
-67 158 -87 250 -54 40 14 43 13 88 -15 56 -36 61 -36 72 -7 8 19 3 25 -36 45
l-44 23 25 30 c81 96 66 297 -28 376 -62 52 -150 71 -228 50z m138 -66 c47
-21 77 -59 93 -116 21 -76 6 -170 -33 -214 -16 -17 -18 -17 -63 6 -44 22 -48
22 -55 6 -11 -29 -9 -33 17 -43 41 -16 29 -30 -26 -30 -101 0 -166 66 -176
178 -10 105 26 179 101 213 52 23 90 23 142 0z"/>
<path d="M9060 1310 l0 -30 223 2 222 3 3 28 3 27 -225 0 -226 0 0 -30z"/>
<path d="M9199 1216 c-61 -21 -96 -54 -126 -114 -24 -48 -28 -69 -28 -137 0
-66 5 -89 26 -130 53 -103 163 -151 279 -121 l61 16 53 -30 53 -30 11 25 c11
23 9 26 -28 45 -22 11 -40 23 -40 25 0 3 11 22 25 43 49 74 56 197 16 287 -23
51 -89 111 -138 124 -51 14 -120 13 -164 -3z m160 -61 c87 -44 121 -154 86
-272 -21 -72 -33 -79 -89 -51 -41 19 -48 20 -56 8 -16 -26 -11 -38 23 -50 l32
-13 -32 -9 c-65 -21 -149 16 -187 82 -28 48 -29 178 -2 233 36 74 151 111 225
72z"/>
<path d="M218 777 c-113 -32 -171 -118 -172 -252 0 -123 62 -226 150 -253 122
-36 234 8 280 109 15 35 16 42 3 50 -31 19 -54 10 -71 -31 -30 -73 -124 -102
-205 -63 -67 32 -103 134 -84 240 17 93 63 140 146 149 63 7 111 -17 137 -67
15 -30 23 -35 44 -31 37 7 40 27 10 72 -46 70 -146 102 -238 77z"/>
<path d="M580 525 l0 -255 155 0 155 0 0 30 0 30 -125 0 -125 0 0 225 0 225
-30 0 -30 0 0 -255z"/>
<path d="M970 525 l0 -255 35 0 35 0 0 88 0 88 38 37 c21 20 40 37 44 37 3 0
45 -56 93 -125 l88 -125 45 0 c34 0 42 3 35 13 -68 87 -203 277 -203 283 0 5
46 55 102 111 l103 103 -45 0 c-44 0 -47 -2 -172 -127 l-128 -128 0 128 0 127
-35 0 -35 0 0 -255z"/>
</g>
</svg>
